# xmcd CD database file
#
# Track frame offsets:
#	150
#	32367
#	46239
#	63679
#	82058
#	105495
#	127302
#	153077
#	171525
#
# Disc length: 2644 seconds
#
# Revision: 0
# Processed by: cddbd v1.4PL0 Copyright (c) Steve Scherf et al.
# Submitted via: CDex 1.51
#
DISCID=760a5209
DTITLE=ROB MADNA trio - It got it bad and that ain't good
DYEAR=1976
DGENRE=Jazz
TTITLE0=The end of a love affair (Edward C Redding)
TTITLE1=P.J. (Rob Madna)
TTITLE2=I got it bad and that ain't good (Duke Ellington, Paul Francis Webster)
TTITLE3=Let me know (Rob Madna)
TTITLE4=Quietude (Thad Jones)
TTITLE5=Upper Manhattan Medical Group (Billy Strayhorn)
TTITLE6=Con Alma (Dizzy Gillespie)
TTITLE7=Lima a Princess (Kods Serierse)
TTITLE8=Like Sonny (John Coltrane)
EXTD=YEAR: 1976
EXTT0=
EXTT1=
EXTT2=
EXTT3=
EXTT4=
EXTT5=
EXTT6=
EXTT7=
EXTT8=
PLAYORDER=
